<?xml version="1.0" encoding="UTF-8" standalone="no"?>
<!-- Created with Inkscape (http://www.inkscape.org/) -->

<svg
   width="122.87729mm"
   height="58.710979mm"
   viewBox="0 0 122.87729 58.710979"
   version="1.1"
   id="svg1"
   xmlns="http://www.w3.org/2000/svg"
   xmlns:svg="http://www.w3.org/2000/svg">
  <defs
     id="defs1">
    <clipPath
       clipPathUnits="userSpaceOnUse"
       id="clipPath67">
      <g
         id="g70"
         style="display:none;fill:#ffffff">
        <circle
           style="fill:#ffffff;fill-opacity:1;stroke:none;stroke-width:1.05833;stroke-linecap:round;stroke-linejoin:round;paint-order:stroke fill markers"
           id="circle67"
           r="7.438396"
           cy="14.685398"
           cx="45.816036"
           d="m 53.254432,14.685398 a 7.438396,7.438396 0 0 1 -7.438396,7.438396 7.438396,7.438396 0 0 1 -7.438396,-7.438396 7.438396,7.438396 0 0 1 7.438396,-7.4383959 7.438396,7.438396 0 0 1 7.438396,7.4383959 z" />
        <circle
           style="fill:#ffffff;fill-opacity:1;stroke:none;stroke-width:1.05833;stroke-linecap:round;stroke-linejoin:round;paint-order:stroke fill markers"
           id="circle68"
           r="7.438396"
           cy="73.377541"
           cx="168.69357"
           d="m 176.13197,73.377541 a 7.438396,7.438396 0 0 1 -7.4384,7.438396 7.438396,7.438396 0 0 1 -7.43839,-7.438396 7.438396,7.438396 0 0 1 7.43839,-7.438396 7.438396,7.438396 0 0 1 7.4384,7.438396 z" />
        <circle
           style="fill:#ffffff;fill-opacity:1;stroke:none;stroke-width:1.05833;stroke-linecap:round;stroke-linejoin:round;paint-order:stroke fill markers"
           id="circle69"
           r="7.438396"
           cy="14.668983"
           cx="168.69464"
           d="m 176.13304,14.668983 a 7.438396,7.438396 0 0 1 -7.4384,7.438396 7.438396,7.438396 0 0 1 -7.43839,-7.438396 7.438396,7.438396 0 0 1 7.43839,-7.4383955 7.438396,7.438396 0 0 1 7.4384,7.4383955 z" />
        <circle
           style="fill:#ffffff;fill-opacity:1;stroke:none;stroke-width:1.05833;stroke-linecap:round;stroke-linejoin:round;paint-order:stroke fill markers"
           id="circle70"
           r="7.438396"
           cy="73.369156"
           cx="45.817692"
           d="m 53.256088,73.369156 a 7.438396,7.438396 0 0 1 -7.438396,7.438396 7.438396,7.438396 0 0 1 -7.438396,-7.438396 7.438396,7.438396 0 0 1 7.438396,-7.438396 7.438396,7.438396 0 0 1 7.438396,7.438396 z" />
      </g>
      <path
         id="lpe_path-effect70"
         style="display:inline;fill:#ffffff"
         class="powerclip"
         d="M 40.815998,9.6671104 H 173.69329 V 78.37809 H 40.815998 Z m 12.438434,5.0182876 a 7.438396,7.438396 0 0 0 -7.438396,-7.4383959 7.438396,7.438396 0 0 0 -7.438396,7.4383959 7.438396,7.438396 0 0 0 7.438396,7.438396 7.438396,7.438396 0 0 0 7.438396,-7.438396 z M 176.13197,73.377541 a 7.438396,7.438396 0 0 0 -7.4384,-7.438396 7.438396,7.438396 0 0 0 -7.43839,7.438396 7.438396,7.438396 0 0 0 7.43839,7.438396 7.438396,7.438396 0 0 0 7.4384,-7.438396 z m 0.001,-58.708558 a 7.438396,7.438396 0 0 0 -7.4384,-7.4383955 7.438396,7.438396 0 0 0 -7.43839,7.4383955 7.438396,7.438396 0 0 0 7.43839,7.438396 7.438396,7.438396 0 0 0 7.4384,-7.438396 z M 53.256088,73.369156 a 7.438396,7.438396 0 0 0 -7.438396,-7.438396 7.438396,7.438396 0 0 0 -7.438396,7.438396 7.438396,7.438396 0 0 0 7.438396,7.438396 7.438396,7.438396 0 0 0 7.438396,-7.438396 z" />
    </clipPath>
  </defs>
  <g
     id="layer1"
     transform="translate(-45.815997,-14.667112)">
    <path
       style="fill:#4da3ff;fill-opacity:1;stroke:none;stroke-width:0.945854;stroke-linecap:round;stroke-linejoin:round;paint-order:stroke fill markers"
       id="rect1"
       width="122.8773"
       height="58.710979"
       x="45.815998"
       y="14.66711"
       clip-path="url(#clipPath67)"
       d="M 45.815998,14.66711 H 168.69329 V 73.37809 H 45.815998 Z" />
    <path
       style="font-weight:bold;font-size:56px;line-height:0;font-family:Poppins;-inkscape-font-specification:'Poppins, Normal';text-align:center;letter-spacing:5px;text-anchor:middle;white-space:pre;shape-padding:58;fill:#000000;stroke-width:4;stroke-linecap:round;stroke-linejoin:round;paint-order:stroke fill markers"
       d="m 301.18,407.55487 h -13.216 l -1.96,5.992 h -13.048 l 14.504,-39.648 h 14.336 l 14.448,39.648 H 303.14 Z m -3.024,-9.352 -3.584,-11.03199 -3.584,11.03199 z m 42.40804,-24.304 q 6.216,0 10.864,2.52001 4.704,2.51999 7.224,7 2.52,4.47999 2.52,10.192 0,5.656 -2.52,10.19199 -2.52,4.536 -7.224,7.168 -4.648,2.576 -10.864,2.576 h -16.52 v -39.648 z m -1.12,28.56 q 4.2,0 6.664,-2.296 2.464,-2.296 2.464,-6.55199 0,-4.25601 -2.464,-6.55201 -2.464,-2.296 -6.664,-2.296 h -2.968 v 17.696 z m 78.864,-28.56 v 39.648 h -12.376 v -19.768 l -6.104,19.768 h -10.64 l -6.104,-19.768 v 19.768 h -12.432 v -39.648 h 15.232 l 8.736,23.8 8.512,-23.8 z m 23.03202,0 v 39.648 h -12.432 v -39.648 z m 41.73602,0 v 9.856 h -10.528 v 29.792 h -12.432 v -29.792 h -10.416 v -9.856 z m 42.19996,40.04 q -5.6,0 -10.304,-2.632 -4.648,-2.632 -7.392,-7.27999 -2.744,-4.64801 -2.744,-10.47201 0,-5.824 2.744,-10.472 2.744,-4.648 7.392,-7.224 4.704,-2.632 10.304,-2.632 5.6,0 10.248,2.632 4.648,2.576 7.336,7.224 2.744,4.648 2.744,10.472 0,5.824 -2.744,10.47201 -2.688,4.64799 -7.392,7.27999 -4.648,2.632 -10.192,2.632 z m 0,-11.592 q 3.696,0 5.712,-2.352 2.016,-2.40799 2.016,-6.44 0,-4.08799 -2.016,-6.44 -2.016,-2.40799 -5.712,-2.40799 -3.752,0 -5.768,2.40799 -2.016,2.35201 -2.016,6.44 0,4.03201 2.016,6.44 2.016,2.352 5.768,2.352 z m 67.83203,11.2 h -12.432 l -13.16,-19.93599 v 19.93599 h -12.432 v -39.648 h 12.432 l 13.16,20.27201 v -20.27201 h 12.432 z m 23.03196,-29.736 v 4.87201 h 12.32 v 9.35199 h -12.32 v 5.60001 h 14 v 9.91199 h -26.432 v -39.648 h 26.432 v 9.912 z"
       id="text1"
       transform="matrix(0.26458333,0,0,0.26458333,-12.7,-60.854167)"
       aria-label="ADMIT ONE" />
  </g>
</svg>
